<svg xmlns="http://www.w3.org/2000/svg" xml:space="preserve" width="39.507" height="35.733" style="shape-rendering:geometricPrecision;text-rendering:geometricPrecision;image-rendering:optimizeQuality;fill-rule:evenodd;clip-rule:evenodd" viewBox="0 0 1060.5 959.19"><path d="M257.78.12c-24.89.11-55.46 15.23-79.22 38.41-14.88-17.04-39.32-23.42-61.03-13.75-19.12 8.42-31.49 27.38-31.49 48.3 0 7.3 1.52 14.55 4.46 21.24 2.27 5.22 21.02 42.5 49.21 98.19-37.05 32.95-73.3 66.14-99.56 96.26-25 28.53-55.46 69.67-31.37 96.83 32.62 36.82 122.17 15.23 221.84-13.52 18.29 36.03 37.39 73.53 56.83 111.6-61.48 33.52-106.71 64.67-101.03 97.05 7.84 45.46 63.3 51.03 127.51 57.51 18.29 1.82 37.16 3.75 55.69 6.71 86.71 170.35 160.13 314.24 160.13 314.24s-51.37-136.83-114.33-304.12c45.91 13.98 83.07 40.46 92.96 97.62.79 4.77 5.34 7.95 10.23 7.16a7.1 7.1 0 0 0 2.04-.68c3.63-1.59 5.79-5.46 5.11-9.55-12.28-71.49-61.59-100.69-117.96-115.01-19.89-52.74-40.57-107.85-61.14-162.51.68-.34 1.36-.68 1.93-1.02 91.48-47.62 177.86-92.62 156.37-139.22-21.14-46.03-109.67-25.69-210.14 3.06-28.18-74.66-53.64-142.06-72.73-192.4 54.44-49.66 85.69-83.87 80.92-106.38C298.24 13.07 281.75-.11 257.78 0l-.01.11zm629.27 212.4 150.69 104.78c20.69 14.44 28.75 38.98 17.96 54.55-10.91 15.57-36.71 16.59-57.39 2.16L847.62 269.23c-20.69-14.44-28.75-38.98-17.96-54.55 10.91-15.57 36.71-16.59 57.39-2.16m-133.3 195.25 147.63 102.62c6.36 4.43 7.95 13.3 3.52 19.66s-13.3 7.95-19.66 3.52L737.61 430.95c-6.36-4.43-7.95-13.3-3.52-19.66s13.3-7.95 19.66-3.52m-5.11-129.78c-7.27 9.66-10.34 28.3-13.3 46.93-2.05 12.39-3.98 24.78-7.5 35.92-8.98 29.21-25.46 48.3-65.57 35.92-13.98-4.32-25.46-4.55-34.55-1.48-6.82 2.27-12.5 6.47-17.16 12.04-5.11 6.14-8.98 13.98-11.71 22.96-9.09 29.32-6.36 69.78 5.9 106.71 2.38 6.93-1.48 14.55-8.41 16.82-1.38.47-2.83.71-4.28.71-5.71 0-10.78-3.68-12.54-9.12-13.98-41.82-16.82-88.42-6.14-122.96 3.75-12.39 9.32-23.29 16.71-32.16 7.73-9.32 17.5-16.36 29.21-20.34 14.32-4.77 31.25-4.77 50.8 1.25 19.66 6.03 27.84-3.63 32.38-18.29 2.84-9.44 4.77-20.91 6.59-32.38 3.52-21.82 7.05-43.64 18.29-58.64 31.94-42.5 97.4 5.22 132.51 29.67l130.47 90.8c6.36 4.43 7.95 13.3 3.52 19.66s-13.3 7.95-19.66 3.52l-128.99-89.68c-22.5-15.69-78.65-61.94-96.6-37.95v.11zm71.82 33.75 147.63 102.62c6.36 4.43 7.95 13.3 3.52 19.66s-13.3 7.95-19.66 3.52L804.32 334.92c-6.36-4.43-7.95-13.3-3.52-19.66s13.3-7.95 19.66-3.52m-22.28 32.04L945.81 446.4c6.36 4.43 7.95 13.3 3.52 19.66s-13.3 7.95-19.66 3.52L782.04 366.96c-6.36-4.43-7.95-13.3-3.52-19.66s13.3-7.95 19.66-3.52m-22.27 32.05 147.63 102.62c6.36 4.43 7.95 13.3 3.52 19.66s-13.3 7.95-19.66 3.52L759.77 399.01c-6.36-4.43-7.95-13.3-3.52-19.66s13.3-7.95 19.66-3.52m-46.37 63.42 150.69 104.78c20.69 14.44 28.75 38.98 17.96 54.55-10.91 15.57-36.71 16.59-57.39 2.16L690.11 495.96c-20.69-14.44-28.75-38.98-17.96-54.55 10.91-15.57 36.71-16.59 57.39-2.16m-369.7 186.72c-14.88-2.05-29.78-3.52-44.09-5-57.05-5.79-106.38-10.79-111.95-42.96-3.63-21.26 41.14-50.46 91.72-78.42 21.59 42.39 43.19 85.01 64.32 126.37zm129.1-286.5c14.44 31.48-75.92 78.53-148.54 116.38 0 0-.11 0-.11.11-13.3-35.35-26.48-70.35-39.21-103.99 86.6-24.78 172.75-45.23 187.86-12.39l.01-.11zm-266.28 16.82c-87.05 25-175.36 46.37-200.59 17.85-10.91-12.39-.34-37.16 31.37-73.53 24.78-28.3 59.1-60 94.45-91.48 21.14 41.71 46.82 92.28 74.66 147.17zm-41.25-200.37c-2.16 1.82-4.2 3.64-6.14 5.46-15.57-1.82-55.01-64.89-60.57-77.51-5.9-13.3.11-28.98 13.52-34.78 12.16-5.34 25.69-.57 32.62 10.23-8.63 12.39-15.12 26.02-17.96 40.57-.91 4.77 2.05 9.44 6.93 10.34 4.66 1.02 9.44-2.16 10.34-6.93 1.59-8.07 4.89-15.8 8.87-23.18 6.93 23.29 15.8 60.91 12.61 75.81h-.22zm104.44-115.8c2.95 13.87-30.8 48.53-70.46 85.12-14.77-38.87-24.55-64.43-27.5-71.37 20.45-21.26 48.07-35.68 69.89-35.8 15.69-.11 24.89 7.16 28.07 22.16v-.1z" style="fill:#000"/></svg>